<svg width="116" height="60" viewBox="0 0 116 60" fill="none" xmlns="http://www.w3.org/2000/svg">
<ellipse cx="27.4605" cy="25.7147" rx="14" ry="22" transform="rotate(-22.9121 27.4605 25.7147)" stroke="#6C5C9C" stroke-linecap="round" stroke-dasharray="2 2"/>
<path d="M36.2399 48.4913C36.1746 47.5248 37.3842 47.0394 38.0052 47.7829L38.5937 48.4878C38.8714 48.8203 39.3317 48.9362 39.7337 48.7749L40.586 48.4329C41.485 48.0722 42.3205 49.0726 41.8052 49.8929L41.3167 50.6706C41.0862 51.0374 41.1182 51.5109 41.3959 51.8435L41.9845 52.5483C42.6054 53.2919 41.9121 54.3956 40.9727 54.159L40.0822 53.9347C39.6621 53.8289 39.2216 54.0056 38.9912 54.3725L38.5027 55.1501C37.9874 55.9704 36.7235 55.6521 36.6582 54.6855L36.5963 53.7693C36.5671 53.3371 36.2629 52.9728 35.8428 52.867L34.9523 52.6427C34.0129 52.4061 33.9251 51.1057 34.8242 50.7449L35.6764 50.403C36.0785 50.2416 36.3309 49.8397 36.3017 49.4075L36.2399 48.4913Z" fill="#6C5C9C"/>
<circle cx="11" cy="53" r="3" fill="#AA9ADC"/>
<circle cx="50" cy="6" r="2" fill="#AA9ADC"/>
<circle cx="2.5" cy="46.5" r="2.5" fill="#DCD2FB"/>
<rect x="80.5771" width="30.0907" height="42.7152" transform="rotate(26.8145 80.5771 0)" fill="#6C5C9C"/>
<rect x="62.0647" y="8.90991" width="30.0907" height="42.7152" transform="rotate(13.6284 62.0647 8.90991)" fill="#AA9ADC"/>
<path d="M99.4653 46.262C99.7767 44.7049 101.051 43.0295 101.996 41.8189C103.931 39.3401 106.561 37.3318 109.255 35.7401C110.651 34.9149 112.322 33.7241 113.966 33.5186" stroke="#AA9ADC" stroke-linecap="round"/>
<path d="M106.35 43.6254C106.53 42.9032 107.512 42.2651 108.059 41.8677C109.328 40.9447 110.772 40.2751 112.29 39.8822C113.285 39.6249 114.266 39.5241 115.285 39.5241" stroke="#AA9ADC" stroke-linecap="round"/>
</svg>
