<svg width="109" height="52" viewBox="0 0 109 52" fill="none" xmlns="http://www.w3.org/2000/svg">
<path d="M18.6451 34.26C17.6551 34.26 16.9551 34 16.3651 33.45C16.4751 33.23 16.6551 32.98 16.8351 32.81C17.4051 33.3 18.0051 33.5 18.6451 33.5C19.5351 33.5 19.8651 33.15 19.8651 32.64C19.8651 32.11 19.6051 31.88 18.3951 31.46C17.0951 31.01 16.5751 30.59 16.5751 29.64C16.5751 28.8 17.2551 28.15 18.5851 28.15C19.3251 28.15 19.9551 28.39 20.5051 28.91C20.4151 29.12 20.2151 29.37 20.0351 29.51C19.5451 29.06 19.0751 28.88 18.5851 28.88C17.8451 28.88 17.4151 29.18 17.4151 29.67C17.4151 30.21 17.7351 30.44 18.7651 30.79C20.2551 31.29 20.6951 31.72 20.6951 32.67C20.6951 33.6 20.0051 34.26 18.6451 34.26ZM26.3711 28.3C26.3911 29.28 26.3911 33.02 26.3711 34.11C26.1211 34.16 25.7811 34.16 25.5411 34.11C25.5411 33.93 25.5311 33.67 25.5311 33.35C25.1911 33.88 24.6511 34.26 23.8111 34.26C22.5811 34.26 21.7611 33.47 21.7511 31.88C21.7411 30.77 21.7411 29.25 21.7611 28.31C21.9911 28.26 22.3611 28.26 22.5911 28.31C22.6011 29.27 22.5911 30.66 22.6011 31.67C22.6111 32.96 23.1011 33.47 23.9511 33.47C24.6611 33.47 25.2711 33 25.5311 32.28C25.5211 30.78 25.5311 28.94 25.5411 28.3C25.8111 28.25 26.1311 28.25 26.3711 28.3ZM32.3588 30.53C32.3688 31.64 32.3588 33.16 32.3388 34.1C32.1088 34.15 31.7388 34.15 31.5088 34.1C31.5088 33.14 31.5088 31.75 31.4988 30.74C31.4888 29.46 31.0588 28.94 30.2088 28.94C29.4988 28.94 28.8388 29.42 28.5688 30.14C28.5788 31.64 28.5688 33.47 28.5588 34.11C28.2888 34.16 27.9688 34.16 27.7288 34.11C27.7088 33.13 27.7088 29.39 27.7288 28.3C27.9788 28.25 28.3188 28.25 28.5588 28.3C28.5588 28.49 28.5688 28.76 28.5688 29.09C28.9288 28.55 29.5288 28.15 30.3488 28.15C31.5988 28.15 32.3488 28.92 32.3588 30.53ZM35.9666 32.74C37.8466 32.74 38.6066 33.39 38.6066 34.39C38.6066 35.38 37.7766 35.98 35.9366 35.98C34.1366 35.98 33.3366 35.38 33.3366 34.39C33.3366 33.56 33.9766 33.1 34.6466 32.95C34.1266 32.72 33.9166 32 34.5166 31.57C33.9366 31.27 33.6366 30.74 33.6366 30.01C33.6366 28.84 34.4266 28.15 35.8566 28.15C36.4866 28.15 36.9866 28.28 37.3566 28.53C37.6566 28.31 37.9866 28.08 38.2866 27.88C38.4666 28.05 38.6466 28.28 38.7566 28.52C38.5066 28.72 38.1866 28.94 37.8866 29.13C38.0066 29.38 38.0766 29.67 38.0766 30.01C38.0766 31.19 37.2766 31.85 35.8566 31.85C35.6766 31.85 35.4966 31.84 35.3366 31.82C34.8666 31.97 34.8066 32.74 35.9666 32.74ZM35.8566 28.87C34.9166 28.87 34.4266 29.26 34.4266 30.01C34.4266 30.78 34.9166 31.14 35.8566 31.14C36.7866 31.14 37.2866 30.78 37.2866 30.01C37.2866 29.26 36.7866 28.87 35.8566 28.87ZM35.9366 35.29C37.2766 35.29 37.7366 34.95 37.7366 34.39C37.7366 33.81 37.3066 33.44 35.9366 33.44C34.6066 33.44 34.1666 33.81 34.1666 34.39C34.1666 34.95 34.6266 35.29 35.9366 35.29ZM41.3892 34.26C40.3992 34.26 39.6992 34 39.1092 33.45C39.2192 33.23 39.3992 32.98 39.5792 32.81C40.1492 33.3 40.7492 33.5 41.3892 33.5C42.2792 33.5 42.6092 33.15 42.6092 32.64C42.6092 32.11 42.3492 31.88 41.1392 31.46C39.8392 31.01 39.3192 30.59 39.3192 29.64C39.3192 28.8 39.9992 28.15 41.3292 28.15C42.0692 28.15 42.6992 28.39 43.2492 28.91C43.1592 29.12 42.9592 29.37 42.7792 29.51C42.2892 29.06 41.8192 28.88 41.3292 28.88C40.5892 28.88 40.1592 29.18 40.1592 29.67C40.1592 30.21 40.4792 30.44 41.5092 30.79C42.9992 31.29 43.4392 31.72 43.4392 32.67C43.4392 33.6 42.7492 34.26 41.3892 34.26ZM49.1752 30.53C49.1852 31.64 49.1752 33.16 49.1652 34.1C48.9352 34.15 48.5652 34.15 48.3352 34.1C48.3252 33.14 48.3252 31.75 48.3152 30.74C48.3052 29.45 47.8152 28.94 46.9652 28.94C46.2652 28.94 45.6552 29.41 45.3852 30.13C45.3852 31.85 45.3852 33.54 45.3752 34.11C45.0952 34.16 44.7952 34.16 44.5452 34.11C44.5252 32.95 44.5252 27.18 44.5452 25.87C44.7952 25.82 45.1352 25.82 45.3752 25.87C45.3852 26.41 45.3852 27.67 45.3852 29.06C45.7252 28.54 46.2752 28.15 47.1052 28.15C48.3452 28.15 49.1652 28.94 49.1752 30.53ZM50.5027 26.88C50.4827 26.51 50.4727 26.23 50.5027 25.87C50.8727 25.85 51.0727 25.85 51.4327 25.87C51.4527 26.24 51.4527 26.51 51.4327 26.87C51.0727 26.91 50.8627 26.91 50.5027 26.88ZM50.5527 34.11C50.5327 33.13 50.5327 29.38 50.5527 28.3C50.8027 28.24 51.1427 28.24 51.3727 28.3C51.4027 29.36 51.4027 33.11 51.3727 34.11C51.1027 34.16 50.8327 34.16 50.5527 34.11ZM57.437 30.53C57.447 31.64 57.437 33.16 57.417 34.1C57.187 34.15 56.817 34.15 56.587 34.1C56.587 33.14 56.587 31.75 56.577 30.74C56.567 29.46 56.137 28.94 55.287 28.94C54.577 28.94 53.917 29.42 53.647 30.14C53.657 31.64 53.647 33.47 53.637 34.11C53.367 34.16 53.047 34.16 52.807 34.11C52.787 33.13 52.787 29.39 52.807 28.3C53.057 28.25 53.397 28.25 53.637 28.3C53.637 28.49 53.647 28.76 53.647 29.09C54.007 28.55 54.607 28.15 55.427 28.15C56.677 28.15 57.427 28.92 57.437 30.53ZM62.6743 34.11C62.0843 32.16 60.7643 27.64 60.3743 26.15C60.6443 26.03 60.9143 25.95 61.2143 25.9C61.6043 27.24 62.8043 31.49 63.1643 32.95C63.5743 31.08 64.3643 27.79 64.8143 26C65.1143 25.96 65.4843 25.96 65.7543 26C66.2043 27.79 66.9943 31.08 67.4043 32.95C67.7643 31.49 68.9643 27.24 69.3543 25.9C69.6543 25.95 69.9243 26.03 70.1943 26.15C69.8043 27.64 68.4843 32.16 67.8943 34.11C67.5943 34.15 67.1943 34.15 66.9043 34.11C66.3443 31.89 65.6543 28.94 65.2843 27.28C64.9143 28.94 64.2243 31.89 63.6643 34.11C63.3743 34.15 62.9743 34.15 62.6743 34.11ZM70.6952 34.12C70.6752 33.75 70.6652 33.41 70.6952 33.05C71.0652 33.02 71.4252 33.02 71.7852 33.05C71.8052 33.42 71.8052 33.75 71.7852 34.11C71.4152 34.15 71.0552 34.15 70.6952 34.12ZM75.8216 34.26C73.7516 34.26 73.0416 33.19 73.0116 30.87C73.0016 29.87 72.9916 26.63 73.0116 26C73.2716 25.95 73.6316 25.95 73.8716 26C73.8916 26.62 73.8916 29.97 73.8916 30.9C73.8916 32.77 74.4216 33.45 75.8216 33.45C77.2316 33.45 77.7616 32.77 77.7616 30.9C77.7616 29.96 77.7616 26.62 77.7716 26C78.0416 25.95 78.4016 25.95 78.6316 26C78.6516 26.62 78.6416 29.87 78.6316 30.87C78.6116 33.19 77.9016 34.26 75.8216 34.26ZM84.6147 30.53C84.6247 31.64 84.6147 33.16 84.5947 34.1C84.3647 34.15 83.9947 34.15 83.7647 34.1C83.7647 33.14 83.7647 31.75 83.7547 30.74C83.7447 29.46 83.3147 28.94 82.4647 28.94C81.7547 28.94 81.0947 29.42 80.8247 30.14C80.8347 31.64 80.8247 33.47 80.8147 34.11C80.5447 34.16 80.2247 34.16 79.9847 34.11C79.9647 33.13 79.9647 29.39 79.9847 28.3C80.2347 28.25 80.5747 28.25 80.8147 28.3C80.8147 28.49 80.8247 28.76 80.8247 29.09C81.1847 28.55 81.7847 28.15 82.6047 28.15C83.8547 28.15 84.6047 28.92 84.6147 30.53ZM85.9324 26.88C85.9124 26.51 85.9024 26.23 85.9324 25.87C86.3024 25.85 86.5024 25.85 86.8624 25.87C86.8824 26.24 86.8824 26.51 86.8624 26.87C86.5024 26.91 86.2924 26.91 85.9324 26.88ZM85.9824 34.11C85.9624 33.13 85.9624 29.38 85.9824 28.3C86.2324 28.24 86.5724 28.24 86.8024 28.3C86.8324 29.36 86.8324 33.11 86.8024 34.11C86.5324 34.16 86.2624 34.16 85.9824 34.11ZM89.8566 34.13C89.0566 32.13 88.1966 29.69 87.7666 28.38C87.9566 28.28 88.3266 28.17 88.5366 28.14C89.0066 29.43 89.7266 31.41 90.3066 33.15C90.8866 31.41 91.5966 29.43 92.0666 28.14C92.2766 28.17 92.6466 28.28 92.8366 28.38C92.4066 29.69 91.5466 32.13 90.7466 34.13C90.5266 34.16 90.0866 34.16 89.8566 34.13ZM1.25145 49.11C1.22145 48.38 1.23145 41.92 1.25145 41C1.82145 40.98 2.80145 40.98 3.44145 40.99C5.94145 41.05 7.03145 42.47 7.03145 45.04C7.03145 47.65 5.93145 49.07 3.44145 49.11C2.94145 49.12 1.80145 49.12 1.25145 49.11ZM2.10145 48.29C2.49145 48.31 3.04145 48.31 3.47145 48.29C5.33145 48.23 6.15145 47.23 6.15145 45.05C6.15145 42.91 5.33145 41.88 3.47145 41.81C3.00145 41.8 2.48145 41.8 2.10145 41.82C2.12145 42.84 2.12145 47.53 2.10145 48.29ZM10.5629 49.26C8.85293 49.26 7.94293 48.25 7.94293 46.21C7.94293 44.17 8.85293 43.15 10.5629 43.15C12.2729 43.15 13.1729 44.17 13.1729 46.21C13.1729 48.25 12.2729 49.26 10.5629 49.26ZM10.5629 48.48C11.6829 48.48 12.3329 47.85 12.3329 46.21C12.3329 44.56 11.6829 43.93 10.5629 43.93C9.43293 43.93 8.79293 44.56 8.79293 46.21C8.79293 47.85 9.43293 48.48 10.5629 48.48ZM18.9262 45.53C18.9362 46.64 18.9262 48.16 18.9062 49.1C18.6762 49.15 18.3062 49.15 18.0762 49.1C18.0762 48.14 18.0762 46.75 18.0662 45.74C18.0562 44.46 17.6262 43.94 16.7762 43.94C16.0662 43.94 15.4062 44.42 15.1362 45.14C15.1462 46.64 15.1362 48.47 15.1262 49.11C14.8562 49.16 14.5362 49.16 14.2962 49.11C14.2762 48.13 14.2762 44.39 14.2962 43.3C14.5462 43.25 14.8862 43.25 15.1262 43.3C15.1262 43.49 15.1362 43.76 15.1362 44.09C15.4962 43.55 16.0962 43.15 16.9162 43.15C18.1662 43.15 18.9162 43.92 18.9262 45.53ZM24.4839 45.35C24.4939 46.46 24.4839 48.23 24.4839 49.11C24.2439 49.15 23.9539 49.15 23.6839 49.11C23.6739 48.95 23.6639 48.77 23.6639 48.56C23.2439 49.06 22.6439 49.26 21.8939 49.26C20.7839 49.26 19.9539 48.71 19.9539 47.53C19.9539 46.36 20.7239 45.78 22.1939 45.73C22.6539 45.71 23.2139 45.71 23.6439 45.72V45.43C23.6139 44.35 23.1939 43.93 22.3039 43.93C21.6039 43.93 21.1839 44.08 20.7039 44.31C20.5739 44.11 20.4539 43.85 20.4239 43.58C21.1439 43.27 21.6039 43.15 22.4139 43.15C23.6339 43.17 24.4739 43.88 24.4839 45.35ZM22.0139 48.53C22.9539 48.53 23.5539 48.12 23.6539 47.49V46.42C23.2439 46.41 22.7339 46.4 22.2339 46.42C21.3139 46.46 20.7939 46.78 20.7939 47.45C20.7939 48.16 21.2639 48.53 22.0139 48.53ZM33.1318 45.17C33.1418 46.24 33.1418 48.17 33.1218 49.1C32.8918 49.15 32.5218 49.15 32.2918 49.1C32.2918 48.16 32.2918 46.27 32.2818 45.35C32.2718 44.3 31.8718 43.94 31.2318 43.94C30.5718 43.94 30.1418 44.41 29.9018 45.06V45.13C29.9118 46.37 29.9118 48.05 29.8918 49.1C29.6718 49.15 29.3018 49.15 29.0818 49.1C29.0718 48.02 29.0718 46.47 29.0618 45.34C29.0518 44.36 28.6918 43.94 27.9718 43.94C27.3818 43.94 26.8118 44.41 26.5818 45.09C26.5818 46.59 26.5818 48.47 26.5718 49.11C26.3018 49.16 25.9718 49.16 25.7418 49.11C25.7118 48.13 25.7218 44.39 25.7418 43.3C25.9918 43.25 26.3218 43.25 26.5718 43.3V44.01C26.9118 43.5 27.4618 43.15 28.1218 43.15C28.8818 43.15 29.4518 43.48 29.7218 44.14C30.1018 43.51 30.6618 43.15 31.4018 43.15C32.4118 43.15 33.1218 43.82 33.1318 45.17ZM39.1523 49.26C37.9523 49.26 37.0123 48.77 36.3323 48.11C36.4523 47.9 36.7023 47.6 36.8723 47.46C37.4923 48.02 38.2823 48.45 39.1923 48.45C40.1823 48.45 40.8723 47.93 40.8723 47.04C40.8723 46.2 40.4323 45.72 38.9123 45.24C37.3623 44.74 36.7223 44.07 36.7223 42.95C36.7223 41.67 37.6423 40.88 39.1723 40.88C40.1323 40.88 40.9023 41.22 41.4523 41.78C41.3223 41.98 41.1023 42.22 40.9123 42.39C40.3823 41.92 39.9023 41.68 39.1523 41.67C38.1523 41.66 37.6123 42.19 37.6123 42.92C37.6123 43.65 37.9723 44.1 39.4023 44.56C41.0023 45.08 41.7423 45.71 41.7423 47.02C41.7423 48.38 40.8023 49.26 39.1523 49.26ZM47.4795 43.3C47.4995 44.28 47.4995 48.02 47.4795 49.11C47.2295 49.16 46.8895 49.16 46.6495 49.11C46.6495 48.93 46.6395 48.67 46.6395 48.35C46.2995 48.88 45.7595 49.26 44.9195 49.26C43.6895 49.26 42.8695 48.47 42.8595 46.88C42.8495 45.77 42.8495 44.25 42.8695 43.31C43.0995 43.26 43.4695 43.26 43.6995 43.31C43.7095 44.27 43.6995 45.66 43.7095 46.67C43.7195 47.96 44.2095 48.47 45.0595 48.47C45.7695 48.47 46.3795 48 46.6395 47.28C46.6295 45.78 46.6395 43.94 46.6495 43.3C46.9195 43.25 47.2395 43.25 47.4795 43.3ZM49.1172 41.88C49.0972 41.51 49.0972 41.23 49.1172 40.87C49.4872 40.85 49.6972 40.85 50.0472 40.87C50.0672 41.24 50.0672 41.51 50.0472 41.87C49.6872 41.91 49.4872 41.91 49.1172 41.88ZM48.2272 50.67C48.1172 50.46 48.0372 50.15 48.0072 49.88C48.9372 49.71 49.1372 49.32 49.1472 48.31C49.1672 47.35 49.1472 44.37 49.1572 43.3C49.3972 43.25 49.7472 43.25 49.9772 43.3C50.0072 44.38 50.0072 47.34 49.9872 48.34C49.9572 49.84 49.5672 50.39 48.2272 50.67ZM55.9951 43.3C56.0151 44.28 56.0151 48.02 55.9951 49.11C55.7451 49.16 55.4051 49.16 55.1651 49.11C55.1651 48.93 55.1551 48.67 55.1551 48.35C54.8151 48.88 54.2751 49.26 53.4351 49.26C52.2051 49.26 51.3851 48.47 51.3751 46.88C51.3651 45.77 51.3651 44.25 51.3851 43.31C51.6151 43.26 51.9851 43.26 52.2151 43.31C52.2251 44.27 52.2151 45.66 52.2251 46.67C52.2351 47.96 52.7251 48.47 53.5751 48.47C54.2851 48.47 54.8951 48 55.1551 47.28C55.1451 45.78 55.1551 43.94 55.1651 43.3C55.4351 43.25 55.7551 43.25 55.9951 43.3ZM61.9829 45.53C61.9929 46.64 61.9829 48.16 61.9629 49.1C61.7329 49.15 61.3629 49.15 61.1329 49.1C61.1329 48.14 61.1329 46.75 61.1229 45.74C61.1129 44.46 60.6829 43.94 59.8329 43.94C59.1229 43.94 58.4629 44.42 58.1929 45.14C58.2029 46.64 58.1929 48.47 58.1829 49.11C57.9129 49.16 57.5929 49.16 57.3529 49.11C57.3329 48.13 57.3329 44.39 57.3529 43.3C57.6029 43.25 57.9429 43.25 58.1829 43.3C58.1829 43.49 58.1929 43.76 58.1929 44.09C58.5529 43.55 59.1529 43.15 59.9729 43.15C61.2229 43.15 61.9729 43.92 61.9829 45.53ZM65.5906 47.74C67.4706 47.74 68.2306 48.39 68.2306 49.39C68.2306 50.38 67.4006 50.98 65.5606 50.98C63.7606 50.98 62.9606 50.38 62.9606 49.39C62.9606 48.56 63.6006 48.1 64.2706 47.95C63.7506 47.72 63.5406 47 64.1406 46.57C63.5606 46.27 63.2606 45.74 63.2606 45.01C63.2606 43.84 64.0506 43.15 65.4806 43.15C66.1106 43.15 66.6106 43.28 66.9806 43.53C67.2806 43.31 67.6106 43.08 67.9106 42.88C68.0906 43.05 68.2706 43.28 68.3806 43.52C68.1306 43.72 67.8106 43.94 67.5106 44.13C67.6306 44.38 67.7006 44.67 67.7006 45.01C67.7006 46.19 66.9006 46.85 65.4806 46.85C65.3006 46.85 65.1206 46.84 64.9606 46.82C64.4906 46.97 64.4306 47.74 65.5906 47.74ZM65.4806 43.87C64.5406 43.87 64.0506 44.26 64.0506 45.01C64.0506 45.78 64.5406 46.14 65.4806 46.14C66.4106 46.14 66.9106 45.78 66.9106 45.01C66.9106 44.26 66.4106 43.87 65.4806 43.87ZM65.5606 50.29C66.9006 50.29 67.3606 49.95 67.3606 49.39C67.3606 48.81 66.9306 48.44 65.5606 48.44C64.2306 48.44 63.7906 48.81 63.7906 49.39C63.7906 49.95 64.2506 50.29 65.5606 50.29ZM74.3605 49.26C72.3205 49.26 70.9905 47.99 70.9905 45.07C70.9905 42.15 72.3205 40.88 74.3205 40.88C75.3305 40.88 76.0405 41.1 76.7405 41.74C76.6105 41.98 76.4305 42.22 76.2205 42.35C75.6905 41.92 75.1705 41.69 74.3205 41.69C72.8805 41.69 71.8705 42.64 71.8705 45.07C71.8705 47.5 72.8905 48.45 74.3605 48.45C75.1905 48.45 75.8205 48.21 76.3705 47.77C76.5605 47.93 76.7405 48.17 76.8705 48.41C76.1505 49.02 75.4105 49.26 74.3605 49.26ZM82.1304 45.35C82.1404 46.46 82.1304 48.23 82.1304 49.11C81.8904 49.15 81.6004 49.15 81.3304 49.11C81.3204 48.95 81.3104 48.77 81.3104 48.56C80.8904 49.06 80.2904 49.26 79.5404 49.26C78.4304 49.26 77.6004 48.71 77.6004 47.53C77.6004 46.36 78.3704 45.78 79.8404 45.73C80.3004 45.71 80.8604 45.71 81.2904 45.72V45.43C81.2604 44.35 80.8404 43.93 79.9504 43.93C79.2504 43.93 78.8304 44.08 78.3504 44.31C78.2204 44.11 78.1004 43.85 78.0704 43.58C78.7904 43.27 79.2504 43.15 80.0604 43.15C81.2804 43.17 82.1204 43.88 82.1304 45.35ZM79.6604 48.53C80.6004 48.53 81.2004 48.12 81.3004 47.49V46.42C80.8904 46.41 80.3804 46.4 79.8804 46.42C78.9604 46.46 78.4404 46.78 78.4404 47.45C78.4404 48.16 78.9104 48.53 79.6604 48.53ZM90.7782 45.17C90.7882 46.24 90.7882 48.17 90.7682 49.1C90.5382 49.15 90.1682 49.15 89.9382 49.1C89.9382 48.16 89.9382 46.27 89.9282 45.35C89.9182 44.3 89.5182 43.94 88.8782 43.94C88.2182 43.94 87.7882 44.41 87.5482 45.06V45.13C87.5582 46.37 87.5582 48.05 87.5382 49.1C87.3182 49.15 86.9482 49.15 86.7282 49.1C86.7182 48.02 86.7182 46.47 86.7082 45.34C86.6982 44.36 86.3382 43.94 85.6182 43.94C85.0282 43.94 84.4582 44.41 84.2282 45.09C84.2282 46.59 84.2282 48.47 84.2182 49.11C83.9482 49.16 83.6182 49.16 83.3882 49.11C83.3582 48.13 83.3682 44.39 83.3882 43.3C83.6382 43.25 83.9682 43.25 84.2182 43.3V44.01C84.5582 43.5 85.1082 43.15 85.7682 43.15C86.5282 43.15 87.0982 43.48 87.3682 44.14C87.7482 43.51 88.3082 43.15 89.0482 43.15C90.0582 43.15 90.7682 43.82 90.7782 45.17ZM94.5792 43.15C96.0292 43.15 96.9592 44.05 96.9592 46.21C96.9592 48.34 96.0292 49.26 94.5792 49.26C93.8292 49.26 93.2592 48.98 92.9092 48.43C92.9292 49.1 92.9392 50.27 92.9192 50.82C92.6792 50.87 92.3492 50.87 92.0992 50.82C92.0692 49.79 92.0792 44.41 92.0992 43.3C92.3192 43.25 92.6292 43.25 92.9092 43.3C92.9092 43.53 92.9092 43.77 92.8892 44.01C93.2492 43.44 93.8292 43.15 94.5792 43.15ZM94.5192 48.48C95.4992 48.48 96.1092 47.87 96.1092 46.21C96.1092 44.52 95.4992 43.93 94.5192 43.93C93.5992 43.93 92.9492 44.41 92.9292 46.01V46.48C92.9492 48.01 93.5992 48.48 94.5192 48.48ZM102.675 43.3C102.695 44.28 102.695 48.02 102.675 49.11C102.425 49.16 102.085 49.16 101.845 49.11C101.845 48.93 101.835 48.67 101.835 48.35C101.495 48.88 100.955 49.26 100.115 49.26C98.8848 49.26 98.0648 48.47 98.0548 46.88C98.0448 45.77 98.0448 44.25 98.0648 43.31C98.2948 43.26 98.6648 43.26 98.8948 43.31C98.9048 44.27 98.8948 45.66 98.9048 46.67C98.9148 47.96 99.4048 48.47 100.255 48.47C100.965 48.47 101.575 48 101.835 47.28C101.825 45.78 101.835 43.94 101.845 43.3C102.115 43.25 102.435 43.25 102.675 43.3ZM106.043 49.26C105.053 49.26 104.353 49 103.763 48.45C103.873 48.23 104.053 47.98 104.233 47.81C104.803 48.3 105.403 48.5 106.043 48.5C106.933 48.5 107.263 48.15 107.263 47.64C107.263 47.11 107.003 46.88 105.793 46.46C104.493 46.01 103.973 45.59 103.973 44.64C103.973 43.8 104.653 43.15 105.983 43.15C106.723 43.15 107.353 43.39 107.903 43.91C107.813 44.12 107.613 44.37 107.433 44.51C106.943 44.06 106.473 43.88 105.983 43.88C105.243 43.88 104.813 44.18 104.813 44.67C104.813 45.21 105.133 45.44 106.163 45.79C107.653 46.29 108.093 46.72 108.093 47.67C108.093 48.6 107.403 49.26 106.043 49.26Z" fill="#F06786"/>
<path d="M37.8795 12.25C35.7595 12.25 34.5995 10.98 34.5995 8.07C34.5995 5.17 35.7495 3.89 37.8795 3.89C40.0095 3.89 41.1595 5.17 41.1595 8.07C41.1595 11 39.9795 12.25 37.8795 12.25ZM37.8795 11.47C39.4495 11.47 40.2995 10.51 40.2995 8.07C40.2995 5.71 39.5095 4.67 37.8795 4.67C36.2895 4.67 35.4595 5.66 35.4595 8.07C35.4595 10.5 36.2995 11.47 37.8795 11.47ZM45.4123 12.26C43.3723 12.26 42.0423 10.99 42.0423 8.07C42.0423 5.15 43.3723 3.88 45.3723 3.88C46.3823 3.88 47.0923 4.1 47.7923 4.74C47.6623 4.98 47.4823 5.22 47.2723 5.35C46.7423 4.92 46.2223 4.69 45.3723 4.69C43.9323 4.69 42.9223 5.64 42.9223 8.07C42.9223 10.5 43.9423 11.45 45.4123 11.45C46.2423 11.45 46.8723 11.21 47.4223 10.77C47.6123 10.93 47.7923 11.17 47.9223 11.41C47.2023 12.02 46.4623 12.26 45.4123 12.26ZM54.241 3.99C54.271 4.27 54.271 4.46 54.241 4.77C53.681 4.78 52.791 4.78 51.851 4.78C51.861 6.38 51.861 11.38 51.841 12.11C51.541 12.16 51.241 12.16 50.981 12.11C50.951 11.41 50.951 6.4 50.971 4.78C50.051 4.78 49.161 4.78 48.581 4.77C48.551 4.5 48.551 4.24 48.581 3.99C49.911 3.96 52.941 3.96 54.241 3.99ZM62.6506 9.51C62.6806 9.75 62.6806 10.03 62.6506 10.27C62.4806 10.28 62.0406 10.28 61.4706 10.29C61.4706 11.15 61.4606 11.83 61.4506 12.14C61.2406 12.18 60.8306 12.18 60.6306 12.14C60.6206 11.82 60.6206 11.13 60.6106 10.29C59.2706 10.29 57.6706 10.29 57.1106 10.27C57.0906 10.03 57.0906 9.76 57.1106 9.52C57.9106 8.18 59.7106 5.2 60.4806 4C60.7706 3.97 61.1706 3.97 61.4506 4C61.4706 5.08 61.4806 7.54 61.4706 9.5C62.0106 9.5 62.4606 9.51 62.6506 9.51ZM58.0506 9.51C58.3706 9.5 59.5306 9.5 60.6106 9.5C60.6106 7.76 60.6206 5.76 60.6306 5.23C60.1206 6.15 58.7106 8.45 58.0506 9.51ZM63.8773 8.4C63.8473 8.12 63.8473 7.87 63.8773 7.6C64.9673 7.57 67.8873 7.57 68.9673 7.6C69.0073 7.86 69.0073 8.12 68.9673 8.4C67.8773 8.43 64.9573 8.43 63.8773 8.4ZM72.8042 12.28C71.5842 12.28 70.8542 11.88 70.4142 11.19C70.5942 10.98 70.8042 10.78 71.0542 10.63C71.4642 11.18 71.9942 11.46 72.7842 11.46C73.8542 11.46 74.4942 10.77 74.4942 9.51C74.4942 8.39 73.7942 7.76 72.8642 7.76C71.9742 7.76 71.5442 8.08 71.1942 8.51C70.9742 8.44 70.7142 8.34 70.5342 8.23C70.5542 7.35 70.7542 4.71 70.8142 4C71.8242 3.97 73.9242 3.97 74.8842 4C74.9142 4.22 74.9142 4.55 74.8842 4.77C74.0942 4.8 72.2042 4.8 71.6042 4.77C71.5742 5.26 71.4442 7.02 71.4042 7.49C71.7742 7.19 72.3242 7.02 72.9542 7.02C74.2542 7.03 75.3642 7.9 75.3642 9.5C75.3642 11.29 74.3642 12.28 72.8042 12.28Z" fill="#F06786"/>
</svg>
