<svg width="302" height="16" viewBox="0 0 302 16" fill="none" xmlns="http://www.w3.org/2000/svg">
<path d="M11.5069 5.025C10.5469 5.04 9.24193 5.04 8.74693 5.01C8.70193 4.545 8.70193 3.84 8.74693 3.39C9.24193 3.375 10.5319 3.375 11.5069 3.39C11.5069 2.25 11.5219 1.305 11.5369 0.869999C11.8819 0.809999 12.8569 0.809999 13.2769 0.869999C13.3069 2.595 13.3219 8.835 13.2769 10.5C12.9019 10.56 11.9719 10.545 11.5369 10.5C11.5069 9.66 11.5069 7.26 11.5069 5.025ZM5.37193 5.535C4.32193 6.69 3.09193 7.965 2.11693 8.91C1.78693 8.7 1.17193 8.1 0.946934 7.755C1.99693 6.63 3.30193 5.28 4.44193 4.11C4.44193 3.12 4.44193 1.785 4.45693 1.17C4.81693 1.095 5.83693 1.095 6.27193 1.17C6.28693 1.8 6.28693 3.15 6.28693 4.14C7.48693 5.175 8.82193 6.315 9.91693 7.305C9.72193 7.68 9.15193 8.34 8.83693 8.565C7.81693 7.725 6.49693 6.585 5.37193 5.535ZM13.5319 12.75C13.5919 13.17 13.5919 13.83 13.5319 14.28C12.1819 14.34 4.39693 14.34 2.55193 14.265C2.49193 13.17 2.52193 10.65 2.55193 9.765C2.92693 9.72 3.87193 9.72 4.30693 9.765C4.32193 10.56 4.32193 11.895 4.30693 12.75C7.18693 12.735 12.2269 12.72 13.5319 12.75ZM25.3058 5.025C24.3458 5.04 23.0408 5.04 22.5458 5.01C22.5008 4.545 22.5008 3.84 22.5458 3.39C23.0408 3.375 24.3308 3.375 25.3058 3.39C25.3058 2.25 25.3208 1.305 25.3358 0.869999C25.6808 0.809999 26.6558 0.809999 27.0758 0.869999C27.1058 2.595 27.1208 8.835 27.0758 10.5C26.7008 10.56 25.7708 10.545 25.3358 10.5C25.3058 9.66 25.3058 7.26 25.3058 5.025ZM19.1708 5.535C18.1208 6.69 16.8908 7.965 15.9158 8.91C15.5858 8.7 14.9708 8.1 14.7458 7.755C15.7958 6.63 17.1008 5.28 18.2408 4.11C18.2408 3.12 18.2408 1.785 18.2558 1.17C18.6158 1.095 19.6358 1.095 20.0708 1.17C20.0858 1.8 20.0858 3.15 20.0858 4.14C21.2858 5.175 22.6208 6.315 23.7158 7.305C23.5208 7.68 22.9508 8.34 22.6358 8.565C21.6158 7.725 20.2958 6.585 19.1708 5.535ZM27.3308 12.75C27.3908 13.17 27.3908 13.83 27.3308 14.28C25.9808 14.34 18.1958 14.34 16.3508 14.265C16.2908 13.17 16.3208 10.65 16.3508 9.765C16.7258 9.72 17.6708 9.72 18.1058 9.765C18.1208 10.56 18.1208 11.895 18.1058 12.75C20.9858 12.735 26.0258 12.72 27.3308 12.75ZM37.2146 3.465C35.9846 3.495 29.3996 3.495 28.4546 3.465C28.3946 3.03 28.3946 2.415 28.4546 1.98C28.8146 1.965 30.3296 1.965 32.0246 1.965C32.0096 1.5 32.0246 0.944999 32.0396 0.599999C32.3996 0.51 33.4046 0.51 33.8846 0.599999C33.8996 0.944999 33.9146 1.485 33.8996 1.965C35.3396 1.965 36.6296 1.965 37.2146 1.98C37.2446 2.4 37.2596 3.075 37.2146 3.465ZM41.7446 5.205C41.7896 5.64 41.7896 6.33 41.7446 6.78C41.4896 6.81 40.9346 6.825 40.3346 6.825C40.3346 8.715 40.3196 10.5 40.3046 11.25C39.9296 11.31 38.9996 11.295 38.5646 11.25C38.5196 9.66 38.5196 2.325 38.5646 0.869999C38.9096 0.809999 39.8846 0.809999 40.3046 0.869999C40.3196 1.635 40.3346 3.345 40.3346 5.19C40.8896 5.19 41.4296 5.19 41.7446 5.205ZM37.0346 6.885C37.0346 9 35.8646 9.69 32.9546 9.69C30.0446 9.69 28.8746 9 28.8746 6.885C28.8746 4.77 30.0446 4.08 32.9546 4.08C35.8646 4.08 37.0346 4.77 37.0346 6.885ZM30.5246 6.885C30.5246 7.875 31.1096 8.28 32.9546 8.28C34.7996 8.28 35.3846 7.875 35.3846 6.885C35.3846 5.895 34.7996 5.49 32.9546 5.49C31.1096 5.49 30.5246 5.895 30.5246 6.885ZM31.3796 12.75C34.2596 12.735 39.2546 12.72 40.5596 12.75C40.6046 13.17 40.6046 13.83 40.5596 14.28C39.2096 14.34 31.4546 14.34 29.6396 14.265C29.5646 13.23 29.5946 11.31 29.6396 10.47C30.0146 10.425 30.9446 10.425 31.3796 10.47C31.4096 11.205 31.4096 11.955 31.3796 12.75ZM58.7678 6.045C58.8128 6.48 58.8128 7.245 58.7678 7.695C58.4228 7.725 57.9278 7.74 57.2978 7.725C57.2978 10.59 57.2828 13.395 57.2528 14.28C56.8778 14.325 55.9328 14.325 55.4978 14.28C55.4378 12.51 55.4528 2.67 55.4978 0.869999C55.8428 0.794999 56.8328 0.809999 57.2528 0.869999C57.2828 1.68 57.2978 3.735 57.2978 6.03C57.8678 6.03 58.3778 6.03 58.7678 6.045ZM51.7178 1.29C52.1828 1.245 53.0378 1.245 53.4878 1.29C53.5178 4.215 53.5028 12.15 53.4878 13.215C52.3778 13.29 47.4128 13.32 46.1528 13.215C46.1078 11.775 46.0928 4.08 46.1528 1.29C46.6028 1.245 47.5028 1.245 47.9078 1.29C47.9228 1.815 47.9228 3.48 47.9228 5.34C49.0028 5.325 50.6978 5.325 51.7178 5.34V1.29ZM51.7178 11.655V6.93C50.6678 6.945 48.9728 6.945 47.9228 6.93C47.9078 8.925 47.9078 10.86 47.9078 11.655C48.7928 11.685 50.9228 11.685 51.7178 11.655ZM72.4917 3.66C72.5367 4.095 72.5367 4.785 72.4917 5.235C72.2367 5.265 71.6817 5.28 71.0817 5.28C71.0817 6.63 71.0667 7.92 71.0517 8.595C70.6767 8.655 69.7467 8.64 69.3117 8.595C69.2667 7.2 69.2667 2.145 69.3117 0.869999C69.6567 0.809999 70.6317 0.809999 71.0517 0.869999C71.0667 1.47 71.0667 2.505 71.0817 3.645C71.6367 3.645 72.1767 3.645 72.4917 3.66ZM67.8867 7.995C66.8517 8.04 62.8317 8.07 59.6367 7.995C59.5767 7.185 59.5767 4.56 59.6367 3.9C60.8067 3.885 64.2867 3.885 65.1267 3.9V2.64C64.0017 2.655 60.9717 2.655 59.6967 2.64C59.6367 2.19 59.6367 1.62 59.6967 1.185C60.7617 1.155 65.3667 1.17 66.8067 1.185C66.8667 1.965 66.8517 4.5 66.8067 5.28C65.5917 5.31 62.6067 5.31 61.3017 5.28V6.54H67.8867C67.9317 6.945 67.9167 7.56 67.8867 7.995ZM60.1617 9.315C61.4517 9.27 70.1067 9.27 71.0517 9.315C71.1117 10.62 71.1117 13.02 71.0517 14.265C69.7017 14.355 61.6167 14.37 60.1617 14.265C60.0867 12.675 60.1167 10.845 60.1617 9.315ZM69.3267 12.795V10.815C68.3517 10.77 62.9517 10.785 61.8867 10.815V12.795C62.7567 12.84 68.4867 12.825 69.3267 12.795ZM83.6655 14.28C83.6205 12.51 83.6205 2.67 83.6655 0.869999C84.0255 0.794999 85.0155 0.809999 85.4355 0.869999C85.4805 2.88 85.4805 12.495 85.4355 14.28C85.0605 14.325 84.1005 14.325 83.6655 14.28ZM77.4255 13.575C74.5305 13.575 73.2705 12.135 73.2705 7.29C73.2705 2.445 74.5305 1.005 77.4255 1.005C80.3205 1.005 81.5655 2.445 81.5655 7.29C81.5655 12.135 80.3205 13.575 77.4255 13.575ZM77.4255 11.94C79.1655 11.94 79.7655 11.01 79.7655 7.29C79.7655 3.57 79.1655 2.64 77.4255 2.64C75.7005 2.64 75.0705 3.57 75.0705 7.29C75.0705 11.01 75.7005 11.94 77.4255 11.94ZM102.009 7.98C100.914 8.055 92.1987 8.085 90.9537 7.98C90.9087 6.255 90.8937 2.865 90.9537 1.26C91.4037 1.215 92.3337 1.215 92.7237 1.26C92.7387 1.62 92.7387 2.25 92.7387 2.94C94.4637 2.925 98.4987 2.925 100.239 2.94V1.26C100.689 1.215 101.559 1.215 102.009 1.26C102.054 3 102.054 6.33 102.009 7.98ZM100.239 4.545C98.5137 4.56 94.4487 4.56 92.7387 4.545C92.7387 5.325 92.7237 6.045 92.7237 6.42C93.5337 6.45 99.5037 6.45 100.239 6.42V4.545ZM102.879 9.54C102.924 9.975 102.924 10.575 102.879 11.07C102.234 11.1 99.9087 11.115 97.3887 11.115C97.3887 12.24 97.4037 13.77 97.3737 14.4C96.9687 14.43 96.0687 14.43 95.5887 14.4C95.5587 13.83 95.5437 12.27 95.5737 11.115C93.1437 11.1 90.8787 11.085 90.0687 11.07C90.0237 10.62 90.0237 9.99 90.0687 9.54C92.8287 9.48 101.379 9.51 102.879 9.54ZM104.903 5.58C104.828 4.32 104.843 2.01 104.903 0.99C105.278 0.944999 106.268 0.944999 106.688 0.99C106.718 1.92 106.718 3.18 106.688 4.065C107.993 4.02 114.518 4.02 115.703 4.065C115.748 4.515 115.748 5.145 115.703 5.58C114.473 5.64 106.343 5.64 104.903 5.58ZM103.868 8.565C103.823 8.16 103.823 7.485 103.868 7.05C107.048 6.99 114.743 7.005 116.678 7.05C116.723 7.455 116.723 8.1 116.678 8.565C114.833 8.625 106.148 8.625 103.868 8.565ZM104.753 14.295C104.678 13.17 104.708 10.635 104.753 9.705C105.113 9.66 106.118 9.66 106.538 9.705C106.568 10.545 106.568 12.075 106.538 12.765C109.358 12.75 114.863 12.735 116.093 12.765C116.153 13.185 116.153 13.86 116.093 14.295C114.803 14.37 106.103 14.37 104.753 14.295ZM123.366 13.665C123.336 12.06 123.351 6.255 123.351 3.495C122.826 3.855 122.061 4.305 121.341 4.71C121.026 4.365 120.636 3.69 120.486 3.225C121.491 2.61 122.931 1.74 123.366 1.5C123.696 1.455 124.776 1.455 125.181 1.5C125.226 3.63 125.226 11.25 125.181 13.665C124.746 13.755 123.801 13.755 123.366 13.665ZM131.449 13.89C128.734 13.89 127.309 12.24 127.309 7.605C127.309 2.955 128.704 1.32 131.449 1.32C134.059 1.32 135.604 2.805 135.604 7.605C135.604 12.375 134.104 13.89 131.449 13.89ZM131.449 12.21C133.039 12.21 133.774 11.19 133.774 7.605C133.774 3.915 132.949 3 131.449 3C129.859 3 129.124 4.08 129.124 7.605C129.124 11.16 129.874 12.21 131.449 12.21ZM147.313 4.29C146.668 4.305 146.023 4.29 145.573 4.275C145.543 3.81 145.543 3.105 145.573 2.655C146.023 2.64 146.653 2.64 147.313 2.64C147.313 1.92 147.313 1.29 147.328 0.869999C147.673 0.794999 148.648 0.794999 149.068 0.869999C149.113 2.625 149.113 6.615 149.068 8.37C148.693 8.415 147.763 8.4 147.328 8.37C147.313 7.47 147.298 5.85 147.313 4.29ZM141.283 5.355C138.583 5.355 137.443 4.665 137.443 3.12C137.443 1.575 138.583 0.884999 141.283 0.884999C143.983 0.884999 145.123 1.575 145.123 3.12C145.123 4.665 143.983 5.355 141.283 5.355ZM141.283 2.295C139.498 2.295 139.123 2.58 139.123 3.12C139.123 3.675 139.498 3.945 141.283 3.945C143.053 3.945 143.443 3.675 143.443 3.12C143.443 2.58 143.053 2.295 141.283 2.295ZM140.593 8.475C140.578 8.175 140.563 7.785 140.563 7.38C139.003 7.38 137.548 7.365 136.783 7.35C136.708 6.915 136.708 6.405 136.783 5.97C138.223 5.925 144.898 5.925 146.293 5.97C146.353 6.465 146.353 6.915 146.293 7.35C145.708 7.365 144.118 7.38 142.363 7.38C142.363 7.785 142.363 8.16 142.348 8.475C141.898 8.535 140.968 8.535 140.593 8.475ZM139.978 12.975H149.338C149.383 13.365 149.368 13.905 149.338 14.28C148.138 14.355 140.098 14.355 138.223 14.28C138.163 13.545 138.133 12.195 138.223 10.98H147.328V10.2H138.253C138.193 9.81 138.193 9.195 138.253 8.895C140.263 8.85 147.178 8.835 149.083 8.88C149.143 9.51 149.143 11.535 149.083 12.18H139.978V12.975ZM150.807 14.97C150.777 14.28 150.792 12.42 150.807 11.745C151.272 11.685 152.367 11.685 152.787 11.745C152.757 12.555 152.577 14.16 152.442 14.97C152.067 15.045 151.197 15.015 150.807 14.97ZM158.481 7.845C158.211 7.59 157.671 6.795 157.551 6.39C158.811 5.61 160.866 4.365 162.531 3.36C162.516 2.535 162.531 1.485 162.561 0.944999C162.906 0.9 163.971 0.884999 164.391 0.944999C164.421 1.47 164.436 2.535 164.421 3.345C166.116 4.305 168.216 5.505 169.461 6.255C169.341 6.66 168.816 7.485 168.576 7.74C167.571 7.17 165.306 5.91 163.491 4.83C161.721 5.955 159.501 7.275 158.481 7.845ZM169.881 8.955C169.926 9.405 169.926 9.99 169.881 10.485C169.236 10.53 166.911 10.545 164.391 10.545C164.391 11.805 164.406 13.74 164.376 14.4C163.971 14.43 163.071 14.43 162.591 14.4C162.561 13.785 162.546 11.835 162.576 10.545C160.146 10.53 157.881 10.515 157.071 10.485C157.026 10.05 157.026 9.42 157.071 8.955C159.831 8.91 168.381 8.925 169.881 8.955ZM178.805 3.6C179.24 3.585 180.335 3.585 181.25 3.585C181.25 2.415 181.265 1.365 181.28 0.869999C181.625 0.809999 182.6 0.809999 183.02 0.869999C183.05 2.445 183.065 6.855 183.02 8.355C182.645 8.415 181.715 8.4 181.28 8.355C181.265 7.77 181.25 6.54 181.25 5.235C180.35 5.235 179.255 5.22 178.805 5.205C178.76 4.755 178.76 4.035 178.805 3.6ZM178.595 8.01C177.47 7.41 176.255 6.72 175.145 6.045C174.05 6.855 172.835 7.695 171.8 8.385C171.5 8.13 171.02 7.485 170.84 7.095C171.905 6.33 173.075 5.505 174.17 4.725V2.715C172.805 2.715 171.575 2.7 171.125 2.685C171.065 2.22 171.065 1.605 171.125 1.185C172.25 1.155 176.885 1.125 179 1.185C179.045 1.62 179.045 2.28 179 2.685C178.475 2.7 177.29 2.7 176.015 2.715V4.665C177.155 5.31 178.325 5.985 179.45 6.63C179.3 7.02 178.88 7.725 178.595 8.01ZM177.56 8.76C182.075 8.76 183.275 9.705 183.275 11.625C183.275 13.68 181.925 14.505 177.56 14.505C173.045 14.505 171.845 13.56 171.845 11.625C171.845 9.57 173.195 8.76 177.56 8.76ZM177.56 12.99C180.995 12.99 181.505 12.51 181.505 11.625C181.505 10.785 180.98 10.275 177.56 10.275C174.125 10.275 173.615 10.755 173.615 11.625C173.615 12.48 174.14 12.99 177.56 12.99ZM193.803 8.22C193.473 8.265 192.573 8.265 192.138 8.22C192.093 6.99 192.093 1.935 192.138 0.944999C192.498 0.869999 193.443 0.884999 193.803 0.944999C193.818 1.41 193.833 2.445 193.833 3.585H195.438C195.453 2.355 195.453 1.275 195.468 0.869999C195.813 0.794999 196.773 0.794999 197.133 0.869999C197.178 2.07 197.163 7.08 197.133 8.325C196.803 8.385 195.903 8.355 195.468 8.325C195.453 7.785 195.438 6.51 195.438 5.145C194.883 5.16 194.328 5.16 193.833 5.145C193.833 6.465 193.818 7.695 193.803 8.22ZM188.823 5.82C187.473 5.835 185.673 5.835 184.848 5.805C184.788 5.34 184.788 4.665 184.848 4.23C185.583 4.2 187.353 4.185 188.823 4.215V2.745C187.953 2.775 185.883 2.775 184.773 2.76C184.728 2.295 184.728 1.635 184.773 1.2C185.943 1.155 189.213 1.14 190.518 1.215C190.623 2.955 190.638 6.195 190.563 7.845C190.143 7.905 189.243 7.905 188.823 7.845V5.82ZM197.133 9.135C197.193 10.65 197.193 13.08 197.133 14.265C195.768 14.355 187.518 14.37 186.048 14.265C185.958 12.69 185.988 10.725 186.048 9.135C187.353 9.075 196.188 9.075 197.133 9.135ZM195.408 12.795C195.438 12.195 195.438 11.295 195.408 10.62C194.418 10.575 188.868 10.59 187.773 10.62C187.743 11.25 187.728 12.09 187.773 12.795C188.658 12.84 194.553 12.825 195.408 12.795ZM210.782 0.869999C210.827 2.88 210.827 12.495 210.782 14.28C210.407 14.325 209.447 14.325 209.012 14.28C208.997 13.41 208.982 10.59 208.982 7.74C208.262 7.74 207.542 7.74 206.897 7.71C206.837 7.26 206.837 6.48 206.897 6.03C207.617 6.015 208.322 6.015 208.982 6.015C208.982 3.69 208.997 1.605 209.012 0.869999C209.372 0.794999 210.362 0.809999 210.782 0.869999ZM205.892 11.685C206.522 11.7 207.047 11.7 207.437 11.715C207.482 12.165 207.482 12.69 207.437 13.215C205.547 13.275 200.357 13.275 198.572 13.215C198.527 12.735 198.527 12.165 198.572 11.715C198.962 11.7 199.532 11.7 200.177 11.685C200.162 9.165 200.147 5.34 200.177 2.88C199.577 2.88 199.067 2.865 198.692 2.85C198.662 2.385 198.662 1.785 198.692 1.35C200.957 1.305 205.802 1.29 207.317 1.35C207.347 1.785 207.347 2.34 207.317 2.85C206.957 2.865 206.462 2.865 205.892 2.88C205.922 5.34 205.907 9.165 205.892 11.685ZM201.887 11.685C202.637 11.67 203.432 11.67 204.182 11.67C204.167 9.165 204.167 5.355 204.182 2.895H201.887C201.902 5.355 201.902 9.165 201.887 11.685ZM213.886 9.75C213.586 9.555 212.926 8.835 212.746 8.46C213.991 7.365 216.151 5.52 217.726 4.155C217.711 2.955 217.726 1.86 217.756 1.2C218.101 1.155 219.166 1.14 219.586 1.2C219.616 1.935 219.631 3.015 219.616 4.14C221.221 5.46 223.411 7.26 224.671 8.34C224.491 8.715 223.846 9.45 223.561 9.66C222.586 8.865 220.366 7.095 218.701 5.64C217.051 7.125 214.876 8.97 213.886 9.75ZM225.076 12.33C225.121 12.78 225.121 13.365 225.076 13.86C223.666 13.95 214.126 13.92 212.266 13.86C212.221 13.425 212.221 12.795 212.266 12.33C215.026 12.285 223.576 12.3 225.076 12.33ZM238.53 0.869999C238.575 2.745 238.56 12.48 238.53 14.28C238.2 14.34 237.285 14.31 236.85 14.28C236.82 12.465 236.82 2.55 236.85 0.869999C237.195 0.794999 238.17 0.794999 238.53 0.869999ZM233.985 0.944999C234.345 0.869999 235.305 0.869999 235.68 0.944999C235.725 2.82 235.695 12.36 235.68 14.145C235.335 14.19 234.42 14.19 233.985 14.145C233.97 13.26 233.955 10.515 233.955 7.725C233.49 7.74 233.01 7.74 232.575 7.725C232.515 12.375 231.51 13.575 229.32 13.575C227.07 13.575 226.05 12.3 226.05 7.29C226.05 2.28 227.07 1.005 229.32 1.005C231.375 1.005 232.395 2.07 232.56 6.075C232.995 6.075 233.475 6.075 233.955 6.09C233.955 3.735 233.97 1.635 233.985 0.944999ZM229.32 11.94C230.4 11.94 230.82 11.235 230.82 7.29C230.82 3.345 230.4 2.64 229.32 2.64C228.225 2.64 227.805 3.345 227.805 7.29C227.805 11.235 228.225 11.94 229.32 11.94ZM252.179 0.869999C252.224 2.88 252.224 12.495 252.179 14.28C251.804 14.325 250.844 14.325 250.409 14.28C250.379 13.35 250.379 10.185 250.379 7.125C249.284 7.14 247.979 7.125 247.229 7.095C247.169 6.645 247.169 5.88 247.229 5.445C248.099 5.43 249.359 5.415 250.379 5.415C250.379 3.345 250.394 1.545 250.409 0.869999C250.769 0.794999 251.759 0.809999 252.179 0.869999ZM245.084 1.23C245.114 2.16 245.129 4.68 245.099 6.465C246.314 8.325 248.054 10.965 248.879 12.3C248.594 12.645 247.844 13.155 247.484 13.275C246.824 12.345 245.324 10.05 244.169 8.115C243.179 10.11 241.919 12.51 241.319 13.485C240.959 13.395 240.119 12.99 239.819 12.675C240.554 11.265 242.159 8.295 243.224 6.315C243.194 4.485 243.209 2.07 243.239 1.23C243.599 1.155 244.649 1.155 245.084 1.23ZM269.982 4.455C270.027 4.89 270.027 5.58 269.982 6.03C269.727 6.06 269.172 6.075 268.572 6.075C268.572 7.935 268.557 9.735 268.542 10.515C268.167 10.56 267.237 10.56 266.802 10.515C266.757 8.97 266.757 2.28 266.802 0.869999C267.147 0.809999 268.122 0.809999 268.542 0.869999C268.557 1.545 268.557 2.91 268.572 4.44C269.127 4.44 269.667 4.44 269.982 4.455ZM264.567 8.055C263.487 8.115 258.357 8.13 257.127 8.055C257.067 6.435 257.067 2.7 257.127 1.185C258.132 1.125 263.367 1.125 264.567 1.185C264.642 2.805 264.642 6.645 264.567 8.055ZM258.807 2.655C258.777 3.345 258.777 5.895 258.807 6.585C259.782 6.615 261.942 6.63 262.902 6.585C262.932 5.91 262.932 3.345 262.902 2.655C261.957 2.625 259.962 2.64 258.807 2.655ZM259.617 12.75C262.497 12.735 267.492 12.72 268.797 12.75C268.842 13.17 268.842 13.83 268.797 14.28C267.447 14.34 259.692 14.34 257.877 14.265C257.802 13.14 257.832 10.275 257.877 9.36C258.252 9.315 259.182 9.315 259.617 9.36C259.647 10.185 259.647 11.865 259.617 12.75ZM283.856 6.045C283.901 6.48 283.901 7.245 283.856 7.695C283.511 7.725 283.016 7.74 282.386 7.725C282.386 10.59 282.371 13.395 282.341 14.28C281.966 14.325 281.021 14.325 280.586 14.28C280.526 12.51 280.541 2.67 280.586 0.869999C280.931 0.794999 281.921 0.809999 282.341 0.869999C282.371 1.68 282.386 3.735 282.386 6.03C282.956 6.03 283.466 6.03 283.856 6.045ZM273.011 11.625C274.136 11.595 277.796 11.595 278.981 11.625C279.041 12.075 279.041 12.78 278.981 13.215C277.736 13.26 272.756 13.275 271.241 13.215C271.151 10.365 271.166 3.36 271.241 1.29C271.616 1.245 272.591 1.245 273.011 1.29C273.056 3.48 273.041 9.105 273.011 11.625ZM290.815 8.52C286.255 8.52 284.965 7.275 284.965 4.845C284.965 2.37 286.33 1.17 290.815 1.17C295.375 1.17 296.665 2.43 296.665 4.845C296.665 7.32 295.3 8.52 290.815 8.52ZM290.815 2.76C287.74 2.76 286.78 3.33 286.78 4.845C286.78 6.285 287.65 6.93 290.815 6.93C293.89 6.93 294.85 6.36 294.85 4.845C294.85 3.405 293.98 2.76 290.815 2.76ZM297.22 12.33C297.265 12.78 297.265 13.365 297.22 13.86C295.81 13.95 286.27 13.92 284.41 13.86C284.365 13.425 284.365 12.795 284.41 12.33C285.025 12.315 285.94 12.315 286.99 12.315C286.975 11.235 286.99 9.72 287.005 9.12C287.395 9.06 288.325 9.06 288.775 9.12C288.805 9.795 288.79 11.265 288.775 12.3C290.11 12.3 291.535 12.3 292.84 12.315C292.825 11.28 292.81 9.795 292.84 9.12C293.305 9.06 294.235 9.06 294.61 9.12C294.64 9.72 294.64 11.235 294.625 12.315C295.84 12.315 296.8 12.33 297.22 12.33ZM299.228 10.335C299.168 9.06 299.123 2.76 299.108 1.365C299.873 1.29 300.338 1.29 301.088 1.365C301.088 2.76 301.013 9.075 300.953 10.335C300.443 10.38 299.813 10.38 299.228 10.335ZM299.153 13.725C299.123 13.095 299.108 12.495 299.153 11.88C299.813 11.82 300.443 11.82 301.073 11.88C301.103 12.51 301.103 13.095 301.073 13.71C300.428 13.785 299.798 13.77 299.153 13.725Z" fill="#F06786"/>
</svg>
