<svg width="36" height="36" viewBox="0 0 36 36" fill="none" xmlns="http://www.w3.org/2000/svg">
<path d="M16.1913 2.36492C17.1027 1.17327 18.8973 1.17327 19.8087 2.36492V2.36492C20.4908 3.25678 21.7212 3.51831 22.707 2.98099V2.98099C24.0243 2.26305 25.6638 2.99299 26.0117 4.4523V4.4523C26.272 5.54449 27.2897 6.28386 28.4089 6.19398V6.19398C29.9043 6.07389 31.1051 7.40755 30.8294 8.8822V8.8822C30.623 9.98587 31.2519 11.0752 32.3109 11.4483V11.4483C33.7259 11.9469 34.2805 13.6537 33.4288 14.8887V14.8887C32.7913 15.813 32.9228 17.064 33.7385 17.8355V17.8355C34.8283 18.8665 34.6408 20.6513 33.3604 21.4331V21.4331C32.4021 22.0182 32.0134 23.2145 32.4447 24.2512V24.2512C33.021 25.6363 32.1237 27.1905 30.636 27.3839V27.3839C29.5226 27.5287 28.6809 28.4635 28.6533 29.5859V29.5859C28.6164 31.0857 27.1646 32.1405 25.7268 31.7122V31.7122C24.6508 31.3916 23.5016 31.9032 23.0199 32.9174V32.9174C22.3762 34.2725 20.6208 34.6456 19.4816 33.6695V33.6695C18.6289 32.9389 17.3711 32.9389 16.5184 33.6695V33.6695C15.3792 34.6456 13.6238 34.2725 12.9801 32.9174V32.9174C12.4984 31.9032 11.3492 31.3916 10.2732 31.7122V31.7122C8.83544 32.1405 7.38356 31.0857 7.34668 29.5859V29.5859C7.31908 28.4635 6.47739 27.5287 5.36396 27.3839V27.3839C3.87628 27.1905 2.97897 25.6363 3.55528 24.2512V24.2512C3.98661 23.2145 3.5979 22.0182 2.63963 21.4331V21.4331C1.35924 20.6513 1.17165 18.8665 2.26151 17.8355V17.8355C3.07719 17.064 3.20867 15.813 2.57124 14.8887V14.8887C1.71954 13.6536 2.27411 11.9469 3.68907 11.4483V11.4483C4.74806 11.0752 5.377 9.98587 5.17063 8.8822V8.8822C4.89488 7.40755 6.09572 6.07389 7.59111 6.19398V6.19398C8.71031 6.28386 9.72796 5.54449 9.98833 4.4523V4.4523C10.3362 2.99299 11.9757 2.26305 13.293 2.98099V2.98099C14.2788 3.51831 15.5092 3.25678 16.1913 2.36492V2.36492Z" fill="#ED6888"/>
<path d="M9 18.3243L15 25L27 12" stroke="white" stroke-width="2" stroke-linecap="round" stroke-linejoin="round"/>
</svg>
