<svg width="17" height="17" viewBox="0 0 17 17" fill="none" xmlns="http://www.w3.org/2000/svg">
<g clip-path="url(#clip0_168_1116)">
<path d="M10.1189 16.5142H9.05608C8.65291 16.5142 8.32487 16.1874 8.32487 15.7857V8.58949V8.4171L8.21583 8.28325L2.8293 1.6736C2.64676 1.44978 2.6121 1.16088 2.73647 0.900591C2.86084 0.640451 3.10735 0.485107 3.39627 0.485107H15.7797C16.0685 0.485107 16.3152 0.640451 16.4395 0.900591C16.5638 1.16088 16.5293 1.44978 16.3469 1.67345L10.959 8.28354L10.8499 8.41739V8.58978V15.7857C10.8499 16.1874 10.5221 16.5142 10.1189 16.5142Z" fill="#F06786"/>
<path d="M10.1188 16.0285C10.2531 16.0285 10.3623 15.9195 10.3623 15.7857V8.24503L10.5805 7.97748L15.9684 1.36709C16.0486 1.26882 16.0294 1.17262 15.9992 1.10932C15.969 1.04618 15.9064 0.970878 15.7796 0.970878H3.39613C3.26938 0.970878 3.20674 1.04618 3.17654 1.10932C3.14634 1.17262 3.12715 1.26867 3.20764 1.36739L8.81226 8.24473V15.7857C8.81226 15.9195 8.9216 16.0285 9.05594 16.0285H10.1188ZM10.1188 17H9.05594C8.3835 17 7.83722 16.4567 7.83722 15.7857V8.58951L2.45069 1.97972C1.80354 1.18625 2.37051 -0.000610352 3.39613 -0.000610352H15.7796C16.8051 -0.000610352 17.3722 1.18625 16.725 1.97972L11.3373 8.58981V15.7857C11.3373 16.4567 10.7922 17 10.1188 17Z" fill="#F06786"/>
<path d="M0 11.5358H8.53108" stroke="#F06786" stroke-width="0.8"/>
<path d="M1.21875 9.10718H8.5311" stroke="#F06786" stroke-width="0.8"/>
<path d="M2.4375 13.9642H8.53113" stroke="#F06786" stroke-width="0.8"/>
</g>
<defs>
<clipPath id="clip0_168_1116">
<rect width="17" height="17" fill="white"/>
</clipPath>
</defs>
</svg>
