<svg width="107" height="27" viewBox="0 0 107 27" fill="none" xmlns="http://www.w3.org/2000/svg">
<rect width="106.273" height="27" rx="7" fill="#F06786"/>
<path d="M28.2971 9.5884C28.2971 10.1105 28.2833 10.5939 28.2557 11.0387C28.2308 11.4807 28.1659 11.9738 28.061 12.518H29.4988V13.5704H25.2599V15.0704H23.9712V13.5704H19.8151V12.518H26.7681C26.8621 12.0207 26.9256 11.5677 26.9587 11.1588C26.9919 10.75 27.0099 10.3343 27.0126 9.9116H21.0126V8.87155H28.2971V9.5884ZM20.4822 18.0041C21.1756 17.9268 21.7847 17.7776 22.3096 17.5566C22.8344 17.3329 23.2391 17.0649 23.5237 16.7528C23.8082 16.4406 23.9518 16.1188 23.9546 15.7873V15.4682H25.2806V15.7873C25.2806 16.1381 25.4201 16.4682 25.6991 16.7776C25.9781 17.0843 26.3786 17.3467 26.9007 17.5649C27.4256 17.7804 28.0416 17.9268 28.7488 18.0041L28.3137 18.9945C27.438 18.8923 26.6811 18.6851 26.043 18.3729C25.4049 18.0635 24.9256 17.6713 24.6052 17.1961C24.2792 17.6685 23.7999 18.0608 23.1673 18.3729C22.5347 18.6878 21.793 18.895 20.9422 18.9945L20.4822 18.0041ZM39.8699 17.7141H30.1862V16.645H39.8699V17.7141ZM30.6088 13.9641C31.3105 13.8536 31.9445 13.6326 32.5108 13.3011C33.0771 12.9669 33.5204 12.5649 33.8409 12.0953C34.1641 11.6229 34.3257 11.1312 34.3257 10.6202V10.4544H30.9901V9.40608H39.0287V10.4544H35.6931V10.6202C35.6931 11.1312 35.8547 11.6188 36.1779 12.0829C36.5011 12.547 36.9514 12.942 37.5287 13.268C38.1061 13.5912 38.7566 13.808 39.4804 13.9185L38.9583 14.9544C38.3644 14.8467 37.8105 14.6727 37.2967 14.4323C36.7856 14.192 36.334 13.895 35.9417 13.5414C35.5522 13.1878 35.2442 12.7928 35.0177 12.3564C34.7939 12.8011 34.4887 13.2044 34.1019 13.5663C33.718 13.9254 33.2718 14.2293 32.7635 14.4779C32.2553 14.7238 31.7097 14.9006 31.1268 15.0083L30.6088 13.9641ZM47.1549 10.1354C47.1549 10.5856 47.2502 11.0166 47.4409 11.4282C47.6342 11.837 47.9174 12.2003 48.2903 12.518C48.6632 12.8356 49.1149 13.0787 49.6453 13.2472L48.9491 14.2624C48.3884 14.0718 47.9022 13.7928 47.4906 13.4254C47.079 13.0552 46.7572 12.6202 46.5251 12.1202C46.2903 12.6948 45.9588 13.192 45.5306 13.6119C45.1025 14.0318 44.5886 14.3481 43.9892 14.5608L43.2848 13.5331C43.8373 13.3398 44.3055 13.0649 44.6895 12.7086C45.0762 12.3522 45.3663 11.9434 45.5596 11.482C45.753 11.018 45.8511 10.529 45.8538 10.0152V9.01243H47.1549V10.1354ZM44.7309 17.018C44.7309 16.6008 44.8746 16.2431 45.1619 15.9448C45.4519 15.6436 45.8663 15.4144 46.4049 15.2569C46.9436 15.0994 47.5804 15.0207 48.3152 15.0207C49.0417 15.0207 49.6701 15.0994 50.2005 15.2569C50.7337 15.4144 51.1425 15.6436 51.427 15.9448C51.7143 16.2431 51.858 16.6008 51.858 17.018C51.858 17.4406 51.7143 17.8025 51.427 18.1036C51.1425 18.4047 50.7337 18.634 50.2005 18.7914C49.6701 18.9489 49.0417 19.0276 48.3152 19.0276C47.5776 19.0276 46.9395 18.9489 46.4008 18.7914C45.8649 18.634 45.4519 18.4047 45.1619 18.1036C44.8746 17.8025 44.7309 17.4406 44.7309 17.018ZM46.032 17.018C46.0293 17.3412 46.2254 17.5856 46.6204 17.7514C47.0154 17.9171 47.5804 18.0014 48.3152 18.0041C49.0472 18.0014 49.6066 17.9171 49.9933 17.7514C50.3828 17.5856 50.5776 17.3412 50.5776 17.018C50.5776 16.7058 50.3815 16.4655 49.9892 16.297C49.5969 16.1257 49.0389 16.0401 48.3152 16.0401C47.8317 16.0401 47.4188 16.0787 47.0762 16.1561C46.7364 16.2307 46.4768 16.3412 46.2972 16.4876C46.1204 16.634 46.032 16.8108 46.032 17.018ZM50.4533 8.45304H51.7627V11.0221H53.242V12.1077H51.7627V14.7845H50.4533V8.45304ZM57.0827 11.2293C57.0827 11.8232 57.1545 12.3992 57.2981 12.9572C57.4418 13.5124 57.6642 14.0235 57.9653 14.4903C58.2691 14.9544 58.6517 15.3301 59.1131 15.6174L58.3921 16.6202C57.9307 16.3439 57.5399 15.9738 57.2194 15.5097C56.9017 15.0428 56.6503 14.5069 56.4653 13.9019C56.2691 14.5594 55.9984 15.1436 55.6531 15.6547C55.3078 16.163 54.8934 16.5635 54.41 16.8564L53.6061 15.8909C54.1006 15.5898 54.5136 15.1961 54.8451 14.7099C55.1766 14.2238 55.4224 13.6878 55.5827 13.1022C55.7429 12.5138 55.823 11.9088 55.823 11.2873V9.3895H57.0827V11.2293ZM57.9736 12.0994H59.486V8.63536H60.7084V18.5304H59.486V13.1727H57.9736V12.0994ZM61.6614 8.45304H62.9128V19.0359H61.6614V8.45304ZM73.8308 17.7638H64.1471V16.6989H68.3198V14.6354H65.212V9.15331H66.5173V10.8854H71.4234V9.15331H72.7203V14.6354H69.6126V16.6989H73.8308V17.7638ZM71.4234 13.587V11.9296H66.5173V13.587H71.4234ZM83.3608 19.0359H82.0472V8.45304H83.3608V19.0359ZM74.5887 16.1229C75.5058 15.6865 76.2668 15.1961 76.8718 14.6519C77.4796 14.105 77.9464 13.4986 78.2724 12.8329C78.5983 12.1644 78.8 11.4227 78.8773 10.6077H75.1273V9.57597H80.2033C80.2005 10.6782 80.0403 11.692 79.7226 12.6174C79.4077 13.5401 78.8856 14.3867 78.1563 15.1575C77.4298 15.9282 76.4685 16.5981 75.2724 17.1671L74.5887 16.1229Z" fill="white"/>
</svg>
