<svg width="307" height="194" viewBox="0 0 307 194" fill="none" xmlns="http://www.w3.org/2000/svg">
<g clip-path="url(#clip0_1393_1383)">
<rect width="307" height="194" fill="white"/>
<rect x="0.5" y="0.5" width="306" height="193" stroke="#333333"/>
<rect x="12" y="9" width="61" height="11" fill="#E1E1E1"/>
<rect x="78" y="9" width="87" height="11" fill="#E1E1E1"/>
<rect x="80.6357" y="152" width="100.578" height="11" fill="#E1E1E1"/>
<rect x="51" y="36" width="114" height="11" fill="#F194B4"/>
<rect x="97" y="65" width="68" height="11" fill="#E1E1E1"/>
<rect x="181" y="65" width="114" height="11" fill="#E1E1E1"/>
<rect x="181" y="36" width="114" height="11" fill="#F194B4"/>
<rect x="68.7515" y="170" width="100.578" height="11" fill="#E1E1E1"/>
<rect x="195" y="152" width="75" height="11" fill="#E1E1E1"/>
<rect x="180.786" y="170" width="114.659" height="11" fill="#E1E1E1"/>
<rect x="193.11" y="9" width="101.584" height="11" fill="#E1E1E1"/>
<line y1="29.5" x2="306.763" y2="29.5" stroke="#333333"/>
<rect x="44.5" y="83.5" width="250.445" height="60" rx="30" stroke="#333333"/>
</g>
<defs>
<clipPath id="clip0_1393_1383">
<rect width="307" height="194" fill="white"/>
</clipPath>
</defs>
</svg>
