<svg width="112" height="63" viewBox="0 0 112 63" fill="none" xmlns="http://www.w3.org/2000/svg">
<rect x="26.8182" y="12" width="62.1818" height="43.79" rx="5" fill="#D2466A"/>
<rect x="17.5" y="16.8636" width="61.1818" height="42.79" rx="4.5" fill="white" stroke="#F06786"/>
<path d="M17 21.3637C17 18.6022 19.2386 16.3636 22 16.3636H74.1818C76.9432 16.3636 79.1818 18.6022 79.1818 21.3636V29.5007H17V21.3637Z" fill="#F06786"/>
<path d="M29.2612 29.5006V59.2778" stroke="#F06786"/>
<path d="M78.306 36.507L17.8758 36.507" stroke="#F06786"/>
<path d="M78.306 44.3892L17.8758 44.3892" stroke="#F06786"/>
<path d="M78.306 52.2715L17.8758 52.2715" stroke="#F06786"/>
<path d="M41.5224 29.5006V59.2778" stroke="#F06786"/>
<path d="M54.6594 29.5006V59.2778" stroke="#F06786"/>
<path d="M66.9206 29.5006V59.2778" stroke="#F06786"/>
<path d="M6.43051 5.69337C6.37746 4.81746 7.39777 4.30285 8.07062 4.86616L9.51124 6.07226C9.79189 6.30723 10.1785 6.37009 10.5191 6.23614L12.2676 5.54858C13.0843 5.22745 13.889 6.0388 13.5612 6.85279L12.8593 8.59561C12.7226 8.93514 12.7822 9.32224 13.0149 9.60481L14.2091 11.0553C14.7669 11.7327 14.2439 12.7488 13.3685 12.6885L11.4941 12.5596C11.1289 12.5344 10.7792 12.7108 10.5823 13.0194L9.57189 14.6034C9.09996 15.3432 7.97203 15.1598 7.7588 14.3086L7.30224 12.4861C7.21329 12.131 6.93748 11.8529 6.58317 11.7611L4.76444 11.2896C3.915 11.0693 3.74087 9.93995 4.48454 9.47411L6.07678 8.4767C6.38697 8.28239 6.56622 7.93414 6.54409 7.56879L6.43051 5.69337Z" fill="#D2466A"/>
<circle cx="3" cy="19" r="2" fill="#F06786"/>
<circle cx="99.5" cy="60.5" r="2.5" fill="#D2466A"/>
<path d="M98 51.5186C98.2165 50.0494 98.9951 48.5545 100.187 47.6384C101.161 46.8891 102.32 47.2808 103.434 47.4451C105.063 47.6851 104.919 50.7428 103.462 51.14C102.29 51.4594 101.676 50.5572 101.629 49.4859C101.536 47.3211 101.807 44.6272 103.585 43.1546C105.688 41.4129 109.192 42.0058 111.042 43.8723" stroke="#F06786" stroke-linecap="round"/>
</svg>
