<svg width="151" height="20" viewBox="0 0 151 20" fill="none" xmlns="http://www.w3.org/2000/svg">
<path d="M10.7905 14.76V17H0.830469V15.96C0.830469 13.24 2.63047 11.62 4.39047 10.26C6.11047 8.94 7.79047 7.66 7.79047 5.4C7.79047 3.62 6.73047 2.6 5.01047 2.6C3.87047 2.6 2.81047 3.28 2.09047 4.14L1.35047 3.46C2.19047 2.4 3.75047 1.56 5.55047 1.56C8.93047 1.56 10.7905 3.34 10.7905 5.66C10.7905 8.42 8.83047 9.72 6.27047 10.92C4.43047 11.78 2.63047 13.12 2.21047 14.76H10.7905ZM18.7934 1.56C22.5534 1.56 24.7734 4.18 24.7734 9.42C24.7734 14.66 22.5534 17.28 18.7934 17.28C15.0334 17.28 12.8134 14.66 12.8134 9.42C12.8134 4.18 15.0334 1.56 18.7934 1.56ZM18.7934 16.24C20.6134 16.24 21.7734 14.3 21.7734 9.42C21.7734 4.54 20.6134 2.6 18.7934 2.6C16.9734 2.6 15.8134 4.54 15.8134 9.42C15.8134 14.3 16.9734 16.24 18.7934 16.24ZM36.3764 14.76V17H26.4164V15.96C26.4164 13.24 28.2164 11.62 29.9764 10.26C31.6964 8.94 33.3764 7.66 33.3764 5.4C33.3764 3.62 32.3164 2.6 30.5964 2.6C29.4564 2.6 28.3964 3.28 27.6764 4.14L26.9364 3.46C27.7764 2.4 29.3364 1.56 31.1364 1.56C34.5164 1.56 36.3764 3.34 36.3764 5.66C36.3764 8.42 34.4164 9.72 31.8564 10.92C30.0164 11.78 28.2164 13.12 27.7964 14.76H36.3764ZM45.0394 12.66C45.0394 10.54 43.6394 9.4 40.3194 9.4H39.7194V8.52H40.3194C43.0594 8.52 44.3594 7.3 44.3594 5.3C44.3594 3.7 43.2594 2.6 41.6994 2.6C40.6994 2.6 39.6794 2.98 38.9194 3.5L38.3794 2.64C39.3994 1.96 40.7194 1.56 42.3394 1.56C45.8594 1.56 47.3594 3.12 47.3594 5.16C47.3594 6.94 46.2394 8.22 44.2994 8.78C46.6394 9.16 48.0394 10.58 48.0394 12.56C48.0394 15.3 45.9394 17.28 41.8594 17.28C40.2994 17.28 38.6794 16.84 37.6594 16.1L38.2194 15.2C39.0594 15.78 40.3994 16.24 41.6194 16.24C43.6594 16.24 45.0394 14.9 45.0394 12.66ZM65.7227 1.1V3.12C65.7227 4.08 65.3827 4.98 64.7827 5.82C65.2627 5.42 66.0427 5.28 66.7827 5.6L72.5627 8.2L71.4827 10.24L64.4627 6.22C62.9427 8 60.1827 9.38 56.8827 10.14L56.5627 9.18C60.6227 7.68 62.7427 5.94 62.7427 3.08V1.1H65.7227ZM55.3627 11.8H73.6827V12.74H66.0227V18.96H63.0227V12.74H55.3627V11.8ZM84.732 19.46C80.072 19.46 77.752 17.96 77.752 15.62C77.752 13.28 80.072 11.78 84.732 11.78C89.392 11.78 91.712 13.28 91.712 15.62C91.712 17.96 89.392 19.46 84.732 19.46ZM85.552 11.04L81.572 7.06C80.332 9.22 77.772 10.78 75.112 11.44L74.792 10.54C77.592 9.32 79.392 7.24 79.392 4.36V2.28H75.572V1.34H86.092V2.28H82.372V4.18C82.372 5.06 82.172 5.86 81.812 6.6C82.392 6.24 83.252 6.38 83.832 6.88L86.952 9.66L85.552 11.04ZM84.732 12.7C82.172 12.7 80.732 13.88 80.732 15.62C80.732 17.36 82.172 18.54 84.732 18.54C87.292 18.54 88.732 17.36 88.732 15.62C88.732 13.88 87.292 12.7 84.732 12.7ZM91.612 0.82V11.36H88.612V5.98H84.772V5.04H88.612V0.82H91.612ZM107.301 0.92V7.38H108.821V0.82H111.621V18.96H108.821V8.32H107.301V18.66H104.541V14.7C103.141 15.04 101.581 15.12 99.6214 15.12H97.3014C96.3214 15.12 95.4214 14.7 95.4214 13.72V1.84H103.461V2.76H98.2214V13.7C98.2214 14.02 98.4214 14.18 98.7414 14.18H99.9814C101.681 14.18 103.101 14.14 104.541 13.78V0.92H107.301ZM123.351 12.34C128.011 12.34 130.431 13.62 130.431 15.9C130.431 18.18 128.011 19.46 123.351 19.46C118.691 19.46 116.271 18.18 116.271 15.9C116.271 13.62 118.691 12.34 123.351 12.34ZM114.191 10.02H121.951V7.64H118.331C117.351 7.64 116.451 7.2 116.451 6.24V1.2H130.231V2.12H119.451V6.22C119.451 6.56 119.651 6.72 119.971 6.72H130.431V7.64H124.951V10.02H132.511V10.94H114.191V10.02ZM123.351 18.54C125.851 18.54 127.451 17.58 127.451 15.9C127.451 14.22 125.851 13.26 123.351 13.26C120.851 13.26 119.251 14.22 119.251 15.9C119.251 17.58 120.851 18.54 123.351 18.54ZM142.62 2.78H139.76V7.14C139.76 7.98 139.64 8.8 139.44 9.58C140.14 9.36 140.86 9.6 141.36 10.46L143.88 14.94L142.02 15.92L139.24 10.18C138.38 12.68 136.46 14.76 133.66 15.92L133.16 14.98C136.58 12.9 136.76 10.26 136.76 6.86V2.78H133.7V1.84H142.62V2.78ZM146.88 0.92V18.66H144.18V8H141.16V7.06H144.18V0.92H146.88ZM150.84 0.82V18.96H148.1V0.82H150.84Z" fill="#F06786"/>
</svg>
