<svg width="19" height="15" viewBox="0 0 19 15" fill="none" xmlns="http://www.w3.org/2000/svg">
<path d="M1.36456 9.6578C1.17557 9.45647 0.859145 9.44645 0.657805 9.63544C0.456465 9.82443 0.446453 10.1409 0.635442 10.3422L1.36456 9.6578ZM18.4997 9.98419C18.491 9.70818 18.2602 9.49152 17.9842 9.50025L13.4864 9.64257C13.2104 9.6513 12.9938 9.88212 13.0025 10.1581C13.0112 10.4341 13.2421 10.6508 13.5181 10.6421L17.5161 10.5156L17.6426 14.5136C17.6513 14.7896 17.8821 15.0062 18.1581 14.9975C18.4341 14.9888 18.6508 14.7579 18.6421 14.4819L18.4997 9.98419ZM0.635442 10.3422C2.10595 11.9088 4.74827 13.7899 7.92706 14.3412C11.1426 14.8989 14.8522 14.0841 18.3646 10.3422L17.6354 9.6578C14.3478 13.1603 10.9741 13.8547 8.09794 13.3559C5.18507 12.8508 2.72738 11.1097 1.36456 9.6578L0.635442 10.3422Z" fill="#A0A0A0"/>
<path d="M17.6354 5.3422C17.8244 5.54353 18.1409 5.55355 18.3422 5.36456C18.5435 5.17557 18.5535 4.85914 18.3646 4.6578L17.6354 5.3422ZM0.500251 5.01581C0.508984 5.29182 0.739809 5.50848 1.01581 5.49975L5.51356 5.35743C5.78957 5.3487 6.00623 5.11788 5.9975 4.84187C5.98877 4.56587 5.75794 4.3492 5.48194 4.35793L1.48394 4.48444L1.35744 0.486437C1.3487 0.210432 1.11788 -0.00623379 0.841873 0.00249932C0.565869 0.0112324 0.349203 0.242058 0.357936 0.518062L0.500251 5.01581ZM18.3646 4.6578C16.894 3.0912 14.2517 1.21007 11.0729 0.658775C7.85741 0.101108 4.14782 0.915893 0.635443 4.6578L1.36456 5.34219C4.65218 1.83972 8.02592 1.14526 10.9021 1.64407C13.8149 2.14924 16.2726 3.89031 17.6354 5.3422L18.3646 4.6578Z" fill="#A0A0A0"/>
</svg>
