<?xml version="1.0" encoding="UTF-8"?>
<svg id="Layer_1" data-name="Layer 1" xmlns="http://www.w3.org/2000/svg" viewBox="0 0 625.21 150.82">
  <defs>
    <style>
      .cls-1 {
        fill: #ed6888;
      }
    </style>
  </defs>
  <path class="cls-1" d="m76.28,147.95H.16v-3.2h4.83c2.18-.4,4.31-.76,6.4-1.1,2.08-.33,3.72-1.33,4.91-3,1.19-1.66,1.95-4.62,2.26-8.89l.31-9.19V27.92l-.31-9.19c-.31-4.26-1.09-7.26-2.34-8.99-1.25-1.73-2.99-2.8-5.23-3.2-2.24-.4-4.27-.63-6.08-.7-1.82-.07-3.46-.17-4.91-.3v-3.2l72.85-.2c16.95,0,28.21,2.4,33.77,7.19,5.56,4.79,9.44,9.95,11.62,15.48,2.18,5.53,3.28,11.48,3.28,17.87,0,5.99-.73,11.72-2.18,17.18-1.46,5.46-3.69,9.95-6.71,13.48-3.02,3.53-6.76,6.16-11.23,7.89-4.47,1.73-10.24,2.6-17.32,2.6s-12.22.03-16.38.1c-4.16.07-7.64.17-10.45.3v38.35l.31,9.19c.31,4.26,1.07,7.22,2.26,8.89,1.19,1.67,2.94,2.7,5.23,3.1,2.29.4,4.52.63,6.71.7,2.18.07,3.69.17,4.52.3v3.2Zm6.24-105.65c0-7.59-.78-14.98-2.34-22.17-1.56-7.19-3.93-11.35-7.1-12.48-3.17-1.13-6.24-1.73-9.2-1.8-2.96-.07-5.17-.1-6.63-.1v74.69c2.08-.13,4.21-.27,6.4-.4,2.18-.13,5.07-.63,8.66-1.5,3.59-.86,6.19-4.86,7.8-11.98,1.61-7.12,2.42-15.21,2.42-24.27Z"/>
  <path class="cls-1" d="m184.07,75.26v46.73l.31,9.19c.31,4.26,1.14,7.32,2.5,9.19,1.35,1.87,3.64,3.06,6.86,3.59l7.96.8v3.2h-74.88v-3.2h4.84c2.29-.4,4.47-.76,6.55-1.1,2.08-.33,3.72-1.33,4.91-3,1.19-1.66,1.95-4.62,2.26-8.89l.31-9.19V27.92l-.31-9.19c-.31-4.26-1.09-7.26-2.34-8.99-1.25-1.73-3.02-2.8-5.3-3.2-2.29-.4-4.26-.63-5.93-.7-1.66-.07-3.22-.17-4.68-.3v-3.2l69.73-.2c9.67,0,17.52.53,23.55,1.6,6.03,1.07,10.94,3.2,14.74,6.39,3.79,3.2,6.81,7.16,9.05,11.88,2.23,4.73,3.35,10.22,3.35,16.48,0,4.66-.65,9.32-1.95,13.98-1.3,4.66-3.3,8.66-6.01,11.98-2.71,3.33-6.06,5.93-10.06,7.79-4,1.87-10.37,2.8-19.11,2.8v1.4c5.3,1.47,9.75,2.87,13.34,4.21s6.84,3.27,9.75,5.81c2.91,2.54,5.54,6.31,7.88,11.32,2.34,5.01,4.24,10.49,5.69,16.43,1.46,5.95,2.75,10.16,3.9,12.63,1.14,2.47,2.75,3.71,4.84,3.71,2.7,0,4.5-2.23,5.38-6.69.88-4.46,1.33-9.55,1.33-15.28h2.5c0,6.52-.31,11.72-.94,15.58-.62,3.86-2.18,7.89-4.68,12.08s-6.06,7.59-10.69,10.19c-4.63,2.6-9.65,3.89-15.05,3.89-8.42,0-15.16-3.1-20.2-9.31-5.05-6.21-8.17-14.35-9.36-24.43-1.2-10.08-2.16-18.59-2.89-25.53-1.15-7.74-2.65-12.25-4.52-13.52-1.87-1.27-3.9-1.97-6.08-2.1-2.18-.13-4.37-.2-6.55-.2Zm12.48-4.19c3.95-.8,6.94-4.46,8.97-10.98,2.03-6.52,3.04-13.78,3.04-21.77,0-6.52-1.04-12.95-3.12-19.27-2.08-6.32-4.58-10.02-7.49-11.08-2.91-1.06-5.51-1.66-7.8-1.8-2.29-.13-4.32-.27-6.08-.4v65.91h5.3c2.91,0,5.3-.2,7.17-.6Z"/>
  <path class="cls-1" d="m343.64,147.95h-73.47v-3.2c.73,0,1.72-.03,2.96-.1,1.25-.07,3.3-.33,6.16-.8,2.86-.46,4.89-1.56,6.08-3.29,1.19-1.73,1.95-4.66,2.26-8.79l.31-9.19V27.72l-.31-9.19c-.31-4.26-1.01-7.22-2.11-8.89-1.09-1.66-3.25-2.76-6.47-3.3l-8.42-.8v-3.2h73v3.2l-8.42.6c-3.22.4-5.38,1.37-6.47,2.9-1.09,1.53-1.79,4.56-2.11,9.09l-.31,9.19v95.66l.31,9.19c.31,4.39,1.06,7.36,2.26,8.89,1.19,1.53,3.4,2.56,6.63,3.1l8.11.6v3.2Z"/>
  <path class="cls-1" d="m453.77,105.21c0,13.18-4.35,24-13.05,32.45-8.7,8.46-18.15,12.68-28.36,12.68-8.96,0-17.81-3.63-26.56-10.88-8.75-7.26-13.8-10.88-15.16-10.88-3.44,0-5.57,1.67-6.41,4.99-.83,3.33-1.62,8.92-2.34,16.78h-2.65v-71.5h2.65c.62,2.8,1.69,7.39,3.2,13.78,1.51,6.39,4.31,14.01,8.42,22.87,4.11,8.86,9.52,16.21,16.22,22.07,6.71,5.86,14.48,8.79,23.32,8.79,5.09,0,9.25-1.73,12.48-5.19,3.22-3.46,4.84-7.59,4.84-12.38,0-5.72-1.2-10.25-3.59-13.58-2.39-3.33-6.71-6.56-12.95-9.69-6.24-3.13-12.84-6.49-19.81-10.09-6.97-3.59-14.35-8.45-22.15-14.58-7.8-5.99-11.7-17.31-11.7-33.95,0-13.05,4.11-24.1,12.32-33.15,8.21-9.05,17.68-13.58,28.39-13.58,5.93,0,11.7,1.8,17.31,5.39l16.22,11.58c3.01,0,4.99-1.63,5.93-4.89.94-3.26,1.4-7.29,1.4-12.08h2.96v52.92h-2.81c-.52-2.26-1.58-6.12-3.19-11.58-1.61-5.46-4.72-11.58-9.33-18.37s-9.18-11.68-13.69-14.68c-4.51-3-9.93-4.49-16.26-4.49-4.26,0-8.2,1.6-11.83,4.79-3.63,3.2-5.44,7.19-5.44,11.98,0,5.06,1.38,9.29,4.13,12.68,2.75,3.4,5.93,6.09,9.51,8.09s8.55,4.53,14.9,7.59c6.34,3.06,12.92,6.62,19.73,10.68,6.81,4.06,12.4,9.99,16.77,17.77,4.37,7.79,6.55,17.01,6.55,27.66Z"/>
  <path class="cls-1" d="m484.97,27.12v93.27l.31,9.59c.31,4.26,1.17,7.49,2.57,9.69,1.4,2.2,3.72,3.56,6.94,4.09l10.92,1v3.2h-44.93v-3.2c1.56-.13,3.25-.23,5.07-.3,1.82-.07,4.03-.33,6.63-.8,2.6-.46,4.65-1.83,6.16-4.09,1.51-2.26,2.42-5.46,2.73-9.59l.31-9.59V27.72l-.31-9.19c-.73-3.2-1.86-5.86-3.38-7.99-1.52-2.13-3.35-3.4-5.5-3.79-2.15-.4-4.27-.66-6.37-.8-2.1-.13-3.67-.27-4.72-.4v-3.2h57.78l26.23,86.68,23.58-86.68h56.2v3.2h-3.59c-1.04,0-3.2.27-6.47.8-3.28.53-5.54,1.67-6.79,3.4-1.25,1.73-2.03,4.73-2.34,8.99l-.31,9.19v94.66l.31,9.19c.31,4.26,1.01,7.22,2.11,8.89,1.09,1.67,3.25,2.76,6.47,3.3l7.8.8v3.2h-71.13v-3.2l7.17-.6c3.33-.53,5.51-1.53,6.55-3,1.04-1.46,1.72-4.46,2.03-8.99l.31-9.19V48.89c0-4.13.13-9.02.39-14.68.26-5.66.55-10.95.86-15.88h-.94l-6.4,25.76-27.61,103.85h-9.67l-38.06-120.83h-.94Z"/>
</svg>